%TF.GenerationSoftware,KiCad,Pcbnew,7.0.6-7.0.6~ubuntu22.04.1*%
%TF.CreationDate,2023-07-18T11:05:32+02:00*%
%TF.ProjectId,YABR_Bot,59414252-5f42-46f7-942e-6b696361645f,1.0*%
%TF.SameCoordinates,Original*%
%TF.FileFunction,Plated,1,2,PTH,Drill*%
%TF.FilePolarity,Positive*%
%FSLAX46Y46*%
G04 Gerber Fmt 4.6, Leading zero omitted, Abs format (unit mm)*
G04 Created by KiCad (PCBNEW 7.0.6-7.0.6~ubuntu22.04.1) date 2023-07-18 11:05:32*
%MOMM*%
%LPD*%
G01*
G04 APERTURE LIST*
%TA.AperFunction,ViaDrill*%
%ADD10C,0.600000*%
%TD*%
%TA.AperFunction,ComponentDrill*%
%ADD11C,0.800000*%
%TD*%
%TA.AperFunction,ComponentDrill*%
%ADD12C,0.812800*%
%TD*%
%TA.AperFunction,ComponentDrill*%
%ADD13C,1.000000*%
%TD*%
%TA.AperFunction,ComponentDrill*%
%ADD14C,1.016000*%
%TD*%
%TA.AperFunction,ComponentDrill*%
%ADD15C,1.400000*%
%TD*%
G04 APERTURE END LIST*
D10*
X29000000Y-93000000D03*
X76000000Y-68000000D03*
X79000000Y-68000000D03*
X80000000Y-65000000D03*
X86000000Y-68000000D03*
X89000000Y-66000000D03*
X100000000Y-93000000D03*
X108000000Y-67000000D03*
X110000000Y-65000000D03*
X116000000Y-48000000D03*
X119000000Y-45000000D03*
D11*
%TO.C,U3*%
X31110000Y-76650000D03*
X31110000Y-89350000D03*
X33650000Y-76650000D03*
X33650000Y-89350000D03*
X36190000Y-76650000D03*
X36190000Y-89350000D03*
X38730000Y-76650000D03*
X38730000Y-89350000D03*
X41270000Y-76650000D03*
X41270000Y-89350000D03*
X43810000Y-76650000D03*
X43810000Y-89350000D03*
X46350000Y-76650000D03*
X46350000Y-89350000D03*
X48890000Y-76650000D03*
X48890000Y-89350000D03*
%TO.C,U5*%
X81280000Y-35300000D03*
X81280000Y-60700000D03*
X83820000Y-35300000D03*
X83820000Y-60700000D03*
X86360000Y-35300000D03*
X86360000Y-60700000D03*
X88900000Y-35300000D03*
X88900000Y-60700000D03*
X91440000Y-35300000D03*
X91440000Y-60700000D03*
X93980000Y-35300000D03*
X93980000Y-60700000D03*
X96520000Y-35300000D03*
X96520000Y-60700000D03*
X99060000Y-35300000D03*
X99060000Y-60700000D03*
X101600000Y-35300000D03*
X101600000Y-60700000D03*
%TO.C,U2*%
X102110000Y-76650000D03*
X102110000Y-89350000D03*
%TO.C,U5*%
X104140000Y-35300000D03*
X104140000Y-60700000D03*
%TO.C,U2*%
X104650000Y-76650000D03*
X104650000Y-89350000D03*
%TO.C,U5*%
X106680000Y-35300000D03*
X106680000Y-60700000D03*
%TO.C,U2*%
X107190000Y-76650000D03*
X107190000Y-89350000D03*
%TO.C,U5*%
X109220000Y-35300000D03*
X109220000Y-60700000D03*
%TO.C,U2*%
X109730000Y-76650000D03*
X109730000Y-89350000D03*
%TO.C,U5*%
X111760000Y-35300000D03*
X111760000Y-60700000D03*
%TO.C,U2*%
X112270000Y-76650000D03*
X112270000Y-89350000D03*
%TO.C,U5*%
X114300000Y-35300000D03*
X114300000Y-60700000D03*
%TO.C,U2*%
X114810000Y-76650000D03*
X114810000Y-89350000D03*
%TO.C,U5*%
X116840000Y-35300000D03*
X116840000Y-60700000D03*
%TO.C,U2*%
X117350000Y-76650000D03*
X117350000Y-89350000D03*
%TO.C,U5*%
X119380000Y-35300000D03*
X119380000Y-60700000D03*
%TO.C,U2*%
X119890000Y-76650000D03*
X119890000Y-89350000D03*
%TO.C,U5*%
X121920000Y-35300000D03*
X121920000Y-60700000D03*
X124457280Y-35303680D03*
X124460000Y-60700000D03*
X126997280Y-35303680D03*
X127000000Y-60700000D03*
D12*
%TO.C,R3*%
X26920000Y-71000000D03*
X37080000Y-71000000D03*
%TO.C,R5*%
X40000000Y-46000000D03*
X40000000Y-56160000D03*
%TO.C,R6*%
X45000000Y-46000000D03*
X45000000Y-56160000D03*
%TO.C,C1*%
X45222000Y-97000000D03*
X48778000Y-97000000D03*
%TO.C,R1*%
X98920000Y-71000000D03*
X109080000Y-71000000D03*
%TO.C,C2*%
X116222000Y-97000000D03*
X119778000Y-97000000D03*
D13*
%TO.C,U4*%
X30680000Y-22110000D03*
X30680000Y-39890000D03*
%TO.C,M2*%
X31180000Y-97000000D03*
X33720000Y-97000000D03*
X36260000Y-97000000D03*
X38800000Y-97000000D03*
%TO.C,U4*%
X71320000Y-22110000D03*
X71320000Y-39890000D03*
%TO.C,M1*%
X102180000Y-97000000D03*
X104720000Y-97000000D03*
X107260000Y-97000000D03*
X109800000Y-97000000D03*
D14*
%TO.C,SV2*%
X40920000Y-69460000D03*
X40920000Y-72000000D03*
X43460000Y-69460000D03*
X43460000Y-72000000D03*
X46000000Y-69460000D03*
X46000000Y-72000000D03*
%TO.C,JP1*%
X67110000Y-71000000D03*
X69650000Y-71000000D03*
X72190000Y-71000000D03*
X74730000Y-71000000D03*
X77270000Y-71000000D03*
X79810000Y-71000000D03*
X82350000Y-71000000D03*
X84890000Y-71000000D03*
%TO.C,J1*%
X103460000Y-27000000D03*
X106000000Y-27000000D03*
X108540000Y-27000000D03*
%TO.C,SV1*%
X112460000Y-69730000D03*
X112460000Y-72270000D03*
%TO.C,J2*%
X114920000Y-27000000D03*
%TO.C,SV1*%
X115000000Y-69730000D03*
X115000000Y-72270000D03*
%TO.C,J2*%
X117460000Y-27000000D03*
%TO.C,SV1*%
X117540000Y-69730000D03*
X117540000Y-72270000D03*
%TO.C,J2*%
X120000000Y-27000000D03*
D15*
%TO.C,J3*%
X31777500Y-48190000D03*
X31777500Y-55810000D03*
M02*
