G04 #@! TF.GenerationSoftware,KiCad,Pcbnew,7.0.6-7.0.6~ubuntu22.04.1*
G04 #@! TF.CreationDate,2023-07-18T11:05:44+02:00*
G04 #@! TF.ProjectId,YABR_Bot,59414252-5f42-46f7-942e-6b696361645f,1.0*
G04 #@! TF.SameCoordinates,Original*
G04 #@! TF.FileFunction,Copper,L1,Top*
G04 #@! TF.FilePolarity,Positive*
%FSLAX46Y46*%
G04 Gerber Fmt 4.6, Leading zero omitted, Abs format (unit mm)*
G04 Created by KiCad (PCBNEW 7.0.6-7.0.6~ubuntu22.04.1) date 2023-07-18 11:05:44*
%MOMM*%
%LPD*%
G01*
G04 APERTURE LIST*
G04 Aperture macros list*
%AMRoundRect*
0 Rectangle with rounded corners*
0 $1 Rounding radius*
0 $2 $3 $4 $5 $6 $7 $8 $9 X,Y pos of 4 corners*
0 Add a 4 corners polygon primitive as box body*
4,1,4,$2,$3,$4,$5,$6,$7,$8,$9,$2,$3,0*
0 Add four circle primitives for the rounded corners*
1,1,$1+$1,$2,$3*
1,1,$1+$1,$4,$5*
1,1,$1+$1,$6,$7*
1,1,$1+$1,$8,$9*
0 Add four rect primitives between the rounded corners*
20,1,$1+$1,$2,$3,$4,$5,0*
20,1,$1+$1,$4,$5,$6,$7,0*
20,1,$1+$1,$6,$7,$8,$9,0*
20,1,$1+$1,$8,$9,$2,$3,0*%
%AMOutline5P*
0 Free polygon, 5 corners , with rotation*
0 The origin of the aperture is its center*
0 number of corners: always 5*
0 $1 to $10 corner X, Y*
0 $11 Rotation angle, in degrees counterclockwise*
0 create outline with 5 corners*
4,1,5,$1,$2,$3,$4,$5,$6,$7,$8,$9,$10,$1,$2,$11*%
%AMOutline6P*
0 Free polygon, 6 corners , with rotation*
0 The origin of the aperture is its center*
0 number of corners: always 6*
0 $1 to $12 corner X, Y*
0 $13 Rotation angle, in degrees counterclockwise*
0 create outline with 6 corners*
4,1,6,$1,$2,$3,$4,$5,$6,$7,$8,$9,$10,$11,$12,$1,$2,$13*%
%AMOutline7P*
0 Free polygon, 7 corners , with rotation*
0 The origin of the aperture is its center*
0 number of corners: always 7*
0 $1 to $14 corner X, Y*
0 $15 Rotation angle, in degrees counterclockwise*
0 create outline with 7 corners*
4,1,7,$1,$2,$3,$4,$5,$6,$7,$8,$9,$10,$11,$12,$13,$14,$1,$2,$15*%
%AMOutline8P*
0 Free polygon, 8 corners , with rotation*
0 The origin of the aperture is its center*
0 number of corners: always 8*
0 $1 to $16 corner X, Y*
0 $17 Rotation angle, in degrees counterclockwise*
0 create outline with 8 corners*
4,1,8,$1,$2,$3,$4,$5,$6,$7,$8,$9,$10,$11,$12,$13,$14,$15,$16,$1,$2,$17*%
G04 Aperture macros list end*
G04 #@! TA.AperFunction,Profile*
%ADD10C,0.100000*%
G04 #@! TD*
%ADD11C,0.300000*%
G04 #@! TA.AperFunction,NonConductor*
%ADD12C,0.300000*%
G04 #@! TD*
%ADD13C,1.500000*%
G04 #@! TA.AperFunction,NonConductor*
%ADD14C,1.500000*%
G04 #@! TD*
G04 #@! TA.AperFunction,SMDPad,CuDef*
%ADD15C,1.500000*%
G04 #@! TD*
G04 #@! TA.AperFunction,ComponentPad*
%ADD16Outline8P,-0.660400X0.273547X-0.273547X0.660400X0.273547X0.660400X0.660400X0.273547X0.660400X-0.273547X0.273547X-0.660400X-0.273547X-0.660400X-0.660400X-0.273547X90.000000*%
G04 #@! TD*
G04 #@! TA.AperFunction,ComponentPad*
%ADD17C,1.524000*%
G04 #@! TD*
G04 #@! TA.AperFunction,ComponentPad*
%ADD18Outline8P,-0.762000X0.315631X-0.315631X0.762000X0.315631X0.762000X0.762000X0.315631X0.762000X-0.315631X0.315631X-0.762000X-0.315631X-0.762000X-0.762000X-0.315631X0.000000*%
G04 #@! TD*
G04 #@! TA.AperFunction,ComponentPad*
%ADD19O,1.524000X3.048000*%
G04 #@! TD*
G04 #@! TA.AperFunction,ComponentPad*
%ADD20RoundRect,0.250001X-1.549999X0.799999X-1.549999X-0.799999X1.549999X-0.799999X1.549999X0.799999X0*%
G04 #@! TD*
G04 #@! TA.AperFunction,ComponentPad*
%ADD21O,3.600000X2.100000*%
G04 #@! TD*
G04 #@! TA.AperFunction,ComponentPad*
%ADD22C,1.600200*%
G04 #@! TD*
G04 #@! TA.AperFunction,ComponentPad*
%ADD23Outline8P,-0.800100X0.331412X-0.331412X0.800100X0.331412X0.800100X0.800100X0.331412X0.800100X-0.331412X0.331412X-0.800100X-0.331412X-0.800100X-0.800100X-0.331412X180.000000*%
G04 #@! TD*
G04 #@! TA.AperFunction,ComponentPad*
%ADD24R,2.540000X2.540000*%
G04 #@! TD*
G04 #@! TA.AperFunction,ComponentPad*
%ADD25C,2.540000*%
G04 #@! TD*
G04 #@! TA.AperFunction,ComponentPad*
%ADD26R,1.600000X1.600000*%
G04 #@! TD*
G04 #@! TA.AperFunction,ComponentPad*
%ADD27O,1.600000X1.600000*%
G04 #@! TD*
G04 #@! TA.AperFunction,ComponentPad*
%ADD28R,1.700000X1.700000*%
G04 #@! TD*
G04 #@! TA.AperFunction,ComponentPad*
%ADD29O,1.700000X1.700000*%
G04 #@! TD*
G04 #@! TA.AperFunction,ComponentPad*
%ADD30Outline8P,-0.660400X0.273547X-0.273547X0.660400X0.273547X0.660400X0.660400X0.273547X0.660400X-0.273547X0.273547X-0.660400X-0.273547X-0.660400X-0.660400X-0.273547X180.000000*%
G04 #@! TD*
G04 #@! TA.AperFunction,SMDPad,CuDef*
%ADD31RoundRect,0.250000X-0.625000X0.400000X-0.625000X-0.400000X0.625000X-0.400000X0.625000X0.400000X0*%
G04 #@! TD*
G04 #@! TA.AperFunction,SMDPad,CuDef*
%ADD32RoundRect,0.250001X0.624999X-0.462499X0.624999X0.462499X-0.624999X0.462499X-0.624999X-0.462499X0*%
G04 #@! TD*
G04 #@! TA.AperFunction,ComponentPad*
%ADD33Outline8P,-0.660400X0.273547X-0.273547X0.660400X0.273547X0.660400X0.660400X0.273547X0.660400X-0.273547X0.273547X-0.660400X-0.273547X-0.660400X-0.660400X-0.273547X270.000000*%
G04 #@! TD*
G04 #@! TA.AperFunction,ComponentPad*
%ADD34R,1.200000X2.000000*%
G04 #@! TD*
G04 #@! TA.AperFunction,ComponentPad*
%ADD35O,1.200000X2.000000*%
G04 #@! TD*
G04 #@! TA.AperFunction,ViaPad*
%ADD36C,1.200000*%
G04 #@! TD*
G04 #@! TA.AperFunction,Conductor*
%ADD37C,0.500000*%
G04 #@! TD*
G04 #@! TA.AperFunction,Conductor*
%ADD38C,0.250000*%
G04 #@! TD*
G04 #@! TA.AperFunction,Conductor*
%ADD39C,1.250000*%
G04 #@! TD*
%ADD40C,0.350000*%
G04 APERTURE END LIST*
D10*
X20000000Y-17000000D02*
X130000000Y-17000000D01*
X130000000Y-102000000D01*
X20000000Y-102000000D01*
X20000000Y-17000000D01*
X26500000Y-22000000D02*
G75*
G03*
X26500000Y-22000000I-1500000J0D01*
G01*
X86000000Y-84000000D02*
G75*
G03*
X86000000Y-84000000I-1500000J0D01*
G01*
X126500000Y-97000000D02*
G75*
G03*
X126500000Y-97000000I-1500000J0D01*
G01*
X126500000Y-22000000D02*
G75*
G03*
X126500000Y-22000000I-1500000J0D01*
G01*
X26500000Y-97000000D02*
G75*
G03*
X26500000Y-97000000I-1500000J0D01*
G01*
X69000000Y-84000000D02*
G75*
G03*
X69000000Y-84000000I-1500000J0D01*
G01*
D11*
D12*
X95515114Y-90445489D02*
X95515114Y-90945489D01*
X96300828Y-90945489D02*
X94800828Y-90945489D01*
X94800828Y-90945489D02*
X94800828Y-90231203D01*
X95872257Y-89731203D02*
X95872257Y-89016918D01*
X96300828Y-89874060D02*
X94800828Y-89374060D01*
X94800828Y-89374060D02*
X96300828Y-88874060D01*
X94800828Y-88374061D02*
X96015114Y-88374061D01*
X96015114Y-88374061D02*
X96157971Y-88302632D01*
X96157971Y-88302632D02*
X96229400Y-88231204D01*
X96229400Y-88231204D02*
X96300828Y-88088346D01*
X96300828Y-88088346D02*
X96300828Y-87802632D01*
X96300828Y-87802632D02*
X96229400Y-87659775D01*
X96229400Y-87659775D02*
X96157971Y-87588346D01*
X96157971Y-87588346D02*
X96015114Y-87516918D01*
X96015114Y-87516918D02*
X94800828Y-87516918D01*
X96300828Y-86088346D02*
X96300828Y-86802632D01*
X96300828Y-86802632D02*
X94800828Y-86802632D01*
X94800828Y-85802631D02*
X94800828Y-84945489D01*
X96300828Y-85374060D02*
X94800828Y-85374060D01*
D11*
D12*
X113483082Y-20729400D02*
X113697368Y-20800828D01*
X113697368Y-20800828D02*
X114054510Y-20800828D01*
X114054510Y-20800828D02*
X114197368Y-20729400D01*
X114197368Y-20729400D02*
X114268796Y-20657971D01*
X114268796Y-20657971D02*
X114340225Y-20515114D01*
X114340225Y-20515114D02*
X114340225Y-20372257D01*
X114340225Y-20372257D02*
X114268796Y-20229400D01*
X114268796Y-20229400D02*
X114197368Y-20157971D01*
X114197368Y-20157971D02*
X114054510Y-20086542D01*
X114054510Y-20086542D02*
X113768796Y-20015114D01*
X113768796Y-20015114D02*
X113625939Y-19943685D01*
X113625939Y-19943685D02*
X113554510Y-19872257D01*
X113554510Y-19872257D02*
X113483082Y-19729400D01*
X113483082Y-19729400D02*
X113483082Y-19586542D01*
X113483082Y-19586542D02*
X113554510Y-19443685D01*
X113554510Y-19443685D02*
X113625939Y-19372257D01*
X113625939Y-19372257D02*
X113768796Y-19300828D01*
X113768796Y-19300828D02*
X114125939Y-19300828D01*
X114125939Y-19300828D02*
X114340225Y-19372257D01*
X114983081Y-20015114D02*
X115483081Y-20015114D01*
X115697367Y-20800828D02*
X114983081Y-20800828D01*
X114983081Y-20800828D02*
X114983081Y-19300828D01*
X114983081Y-19300828D02*
X115697367Y-19300828D01*
X117197367Y-20800828D02*
X116697367Y-20086542D01*
X116340224Y-20800828D02*
X116340224Y-19300828D01*
X116340224Y-19300828D02*
X116911653Y-19300828D01*
X116911653Y-19300828D02*
X117054510Y-19372257D01*
X117054510Y-19372257D02*
X117125939Y-19443685D01*
X117125939Y-19443685D02*
X117197367Y-19586542D01*
X117197367Y-19586542D02*
X117197367Y-19800828D01*
X117197367Y-19800828D02*
X117125939Y-19943685D01*
X117125939Y-19943685D02*
X117054510Y-20015114D01*
X117054510Y-20015114D02*
X116911653Y-20086542D01*
X116911653Y-20086542D02*
X116340224Y-20086542D01*
X117625939Y-19300828D02*
X118125939Y-20800828D01*
X118125939Y-20800828D02*
X118625939Y-19300828D01*
X119411653Y-19300828D02*
X119697367Y-19300828D01*
X119697367Y-19300828D02*
X119840224Y-19372257D01*
X119840224Y-19372257D02*
X119983081Y-19515114D01*
X119983081Y-19515114D02*
X120054510Y-19800828D01*
X120054510Y-19800828D02*
X120054510Y-20300828D01*
X120054510Y-20300828D02*
X119983081Y-20586542D01*
X119983081Y-20586542D02*
X119840224Y-20729400D01*
X119840224Y-20729400D02*
X119697367Y-20800828D01*
X119697367Y-20800828D02*
X119411653Y-20800828D01*
X119411653Y-20800828D02*
X119268796Y-20729400D01*
X119268796Y-20729400D02*
X119125938Y-20586542D01*
X119125938Y-20586542D02*
X119054510Y-20300828D01*
X119054510Y-20300828D02*
X119054510Y-19800828D01*
X119054510Y-19800828D02*
X119125938Y-19515114D01*
X119125938Y-19515114D02*
X119268796Y-19372257D01*
X119268796Y-19372257D02*
X119411653Y-19300828D01*
X120625939Y-19443685D02*
X120697367Y-19372257D01*
X120697367Y-19372257D02*
X120840225Y-19300828D01*
X120840225Y-19300828D02*
X121197367Y-19300828D01*
X121197367Y-19300828D02*
X121340225Y-19372257D01*
X121340225Y-19372257D02*
X121411653Y-19443685D01*
X121411653Y-19443685D02*
X121483082Y-19586542D01*
X121483082Y-19586542D02*
X121483082Y-19729400D01*
X121483082Y-19729400D02*
X121411653Y-19943685D01*
X121411653Y-19943685D02*
X120554510Y-20800828D01*
X120554510Y-20800828D02*
X121483082Y-20800828D01*
D11*
D12*
X53034510Y-97330828D02*
X53034510Y-95830828D01*
X53034510Y-96402257D02*
X53177368Y-96330828D01*
X53177368Y-96330828D02*
X53463082Y-96330828D01*
X53463082Y-96330828D02*
X53605939Y-96402257D01*
X53605939Y-96402257D02*
X53677368Y-96473685D01*
X53677368Y-96473685D02*
X53748796Y-96616542D01*
X53748796Y-96616542D02*
X53748796Y-97045114D01*
X53748796Y-97045114D02*
X53677368Y-97187971D01*
X53677368Y-97187971D02*
X53605939Y-97259400D01*
X53605939Y-97259400D02*
X53463082Y-97330828D01*
X53463082Y-97330828D02*
X53177368Y-97330828D01*
X53177368Y-97330828D02*
X53034510Y-97259400D01*
X54248796Y-96330828D02*
X54605939Y-97330828D01*
X54963082Y-96330828D02*
X54605939Y-97330828D01*
X54605939Y-97330828D02*
X54463082Y-97687971D01*
X54463082Y-97687971D02*
X54391653Y-97759400D01*
X54391653Y-97759400D02*
X54248796Y-97830828D01*
X57534510Y-97187971D02*
X57463082Y-97259400D01*
X57463082Y-97259400D02*
X57248796Y-97330828D01*
X57248796Y-97330828D02*
X57105939Y-97330828D01*
X57105939Y-97330828D02*
X56891653Y-97259400D01*
X56891653Y-97259400D02*
X56748796Y-97116542D01*
X56748796Y-97116542D02*
X56677367Y-96973685D01*
X56677367Y-96973685D02*
X56605939Y-96687971D01*
X56605939Y-96687971D02*
X56605939Y-96473685D01*
X56605939Y-96473685D02*
X56677367Y-96187971D01*
X56677367Y-96187971D02*
X56748796Y-96045114D01*
X56748796Y-96045114D02*
X56891653Y-95902257D01*
X56891653Y-95902257D02*
X57105939Y-95830828D01*
X57105939Y-95830828D02*
X57248796Y-95830828D01*
X57248796Y-95830828D02*
X57463082Y-95902257D01*
X57463082Y-95902257D02*
X57534510Y-95973685D01*
X58177367Y-97330828D02*
X58177367Y-95830828D01*
X58820225Y-97330828D02*
X58820225Y-96545114D01*
X58820225Y-96545114D02*
X58748796Y-96402257D01*
X58748796Y-96402257D02*
X58605939Y-96330828D01*
X58605939Y-96330828D02*
X58391653Y-96330828D01*
X58391653Y-96330828D02*
X58248796Y-96402257D01*
X58248796Y-96402257D02*
X58177367Y-96473685D01*
X59534510Y-97330828D02*
X59534510Y-96330828D01*
X59534510Y-96616542D02*
X59605939Y-96473685D01*
X59605939Y-96473685D02*
X59677368Y-96402257D01*
X59677368Y-96402257D02*
X59820225Y-96330828D01*
X59820225Y-96330828D02*
X59963082Y-96330828D01*
X60463081Y-97330828D02*
X60463081Y-96330828D01*
X60463081Y-95830828D02*
X60391653Y-95902257D01*
X60391653Y-95902257D02*
X60463081Y-95973685D01*
X60463081Y-95973685D02*
X60534510Y-95902257D01*
X60534510Y-95902257D02*
X60463081Y-95830828D01*
X60463081Y-95830828D02*
X60463081Y-95973685D01*
X61105939Y-97259400D02*
X61248796Y-97330828D01*
X61248796Y-97330828D02*
X61534510Y-97330828D01*
X61534510Y-97330828D02*
X61677367Y-97259400D01*
X61677367Y-97259400D02*
X61748796Y-97116542D01*
X61748796Y-97116542D02*
X61748796Y-97045114D01*
X61748796Y-97045114D02*
X61677367Y-96902257D01*
X61677367Y-96902257D02*
X61534510Y-96830828D01*
X61534510Y-96830828D02*
X61320225Y-96830828D01*
X61320225Y-96830828D02*
X61177367Y-96759400D01*
X61177367Y-96759400D02*
X61105939Y-96616542D01*
X61105939Y-96616542D02*
X61105939Y-96545114D01*
X61105939Y-96545114D02*
X61177367Y-96402257D01*
X61177367Y-96402257D02*
X61320225Y-96330828D01*
X61320225Y-96330828D02*
X61534510Y-96330828D01*
X61534510Y-96330828D02*
X61677367Y-96402257D01*
X62177368Y-96330828D02*
X62748796Y-96330828D01*
X62391653Y-95830828D02*
X62391653Y-97116542D01*
X62391653Y-97116542D02*
X62463082Y-97259400D01*
X62463082Y-97259400D02*
X62605939Y-97330828D01*
X62605939Y-97330828D02*
X62748796Y-97330828D01*
X63463082Y-97330828D02*
X63320225Y-97259400D01*
X63320225Y-97259400D02*
X63248796Y-97187971D01*
X63248796Y-97187971D02*
X63177368Y-97045114D01*
X63177368Y-97045114D02*
X63177368Y-96616542D01*
X63177368Y-96616542D02*
X63248796Y-96473685D01*
X63248796Y-96473685D02*
X63320225Y-96402257D01*
X63320225Y-96402257D02*
X63463082Y-96330828D01*
X63463082Y-96330828D02*
X63677368Y-96330828D01*
X63677368Y-96330828D02*
X63820225Y-96402257D01*
X63820225Y-96402257D02*
X63891654Y-96473685D01*
X63891654Y-96473685D02*
X63963082Y-96616542D01*
X63963082Y-96616542D02*
X63963082Y-97045114D01*
X63963082Y-97045114D02*
X63891654Y-97187971D01*
X63891654Y-97187971D02*
X63820225Y-97259400D01*
X63820225Y-97259400D02*
X63677368Y-97330828D01*
X63677368Y-97330828D02*
X63463082Y-97330828D01*
X64605939Y-96330828D02*
X64605939Y-97830828D01*
X64605939Y-96402257D02*
X64748797Y-96330828D01*
X64748797Y-96330828D02*
X65034511Y-96330828D01*
X65034511Y-96330828D02*
X65177368Y-96402257D01*
X65177368Y-96402257D02*
X65248797Y-96473685D01*
X65248797Y-96473685D02*
X65320225Y-96616542D01*
X65320225Y-96616542D02*
X65320225Y-97045114D01*
X65320225Y-97045114D02*
X65248797Y-97187971D01*
X65248797Y-97187971D02*
X65177368Y-97259400D01*
X65177368Y-97259400D02*
X65034511Y-97330828D01*
X65034511Y-97330828D02*
X64748797Y-97330828D01*
X64748797Y-97330828D02*
X64605939Y-97259400D01*
X65963082Y-97330828D02*
X65963082Y-95830828D01*
X66605940Y-97330828D02*
X66605940Y-96545114D01*
X66605940Y-96545114D02*
X66534511Y-96402257D01*
X66534511Y-96402257D02*
X66391654Y-96330828D01*
X66391654Y-96330828D02*
X66177368Y-96330828D01*
X66177368Y-96330828D02*
X66034511Y-96402257D01*
X66034511Y-96402257D02*
X65963082Y-96473685D01*
X67891654Y-97259400D02*
X67748797Y-97330828D01*
X67748797Y-97330828D02*
X67463083Y-97330828D01*
X67463083Y-97330828D02*
X67320225Y-97259400D01*
X67320225Y-97259400D02*
X67248797Y-97116542D01*
X67248797Y-97116542D02*
X67248797Y-96545114D01*
X67248797Y-96545114D02*
X67320225Y-96402257D01*
X67320225Y-96402257D02*
X67463083Y-96330828D01*
X67463083Y-96330828D02*
X67748797Y-96330828D01*
X67748797Y-96330828D02*
X67891654Y-96402257D01*
X67891654Y-96402257D02*
X67963083Y-96545114D01*
X67963083Y-96545114D02*
X67963083Y-96687971D01*
X67963083Y-96687971D02*
X67248797Y-96830828D01*
X68605939Y-97330828D02*
X68605939Y-96330828D01*
X68605939Y-96616542D02*
X68677368Y-96473685D01*
X68677368Y-96473685D02*
X68748797Y-96402257D01*
X68748797Y-96402257D02*
X68891654Y-96330828D01*
X68891654Y-96330828D02*
X69034511Y-96330828D01*
X70677367Y-97330828D02*
X70677367Y-95830828D01*
X71534510Y-97330828D02*
X70891653Y-96473685D01*
X71534510Y-95830828D02*
X70677367Y-96687971D01*
X72391653Y-97330828D02*
X72248796Y-97259400D01*
X72248796Y-97259400D02*
X72177367Y-97187971D01*
X72177367Y-97187971D02*
X72105939Y-97045114D01*
X72105939Y-97045114D02*
X72105939Y-96616542D01*
X72105939Y-96616542D02*
X72177367Y-96473685D01*
X72177367Y-96473685D02*
X72248796Y-96402257D01*
X72248796Y-96402257D02*
X72391653Y-96330828D01*
X72391653Y-96330828D02*
X72605939Y-96330828D01*
X72605939Y-96330828D02*
X72748796Y-96402257D01*
X72748796Y-96402257D02*
X72820225Y-96473685D01*
X72820225Y-96473685D02*
X72891653Y-96616542D01*
X72891653Y-96616542D02*
X72891653Y-97045114D01*
X72891653Y-97045114D02*
X72820225Y-97187971D01*
X72820225Y-97187971D02*
X72748796Y-97259400D01*
X72748796Y-97259400D02*
X72605939Y-97330828D01*
X72605939Y-97330828D02*
X72391653Y-97330828D01*
X72248796Y-95830828D02*
X72320225Y-95902257D01*
X72320225Y-95902257D02*
X72248796Y-95973685D01*
X72248796Y-95973685D02*
X72177367Y-95902257D01*
X72177367Y-95902257D02*
X72248796Y-95830828D01*
X72248796Y-95830828D02*
X72248796Y-95973685D01*
X72820225Y-95830828D02*
X72891653Y-95902257D01*
X72891653Y-95902257D02*
X72820225Y-95973685D01*
X72820225Y-95973685D02*
X72748796Y-95902257D01*
X72748796Y-95902257D02*
X72820225Y-95830828D01*
X72820225Y-95830828D02*
X72820225Y-95973685D01*
X73463082Y-97259400D02*
X73605939Y-97330828D01*
X73605939Y-97330828D02*
X73891653Y-97330828D01*
X73891653Y-97330828D02*
X74034510Y-97259400D01*
X74034510Y-97259400D02*
X74105939Y-97116542D01*
X74105939Y-97116542D02*
X74105939Y-97045114D01*
X74105939Y-97045114D02*
X74034510Y-96902257D01*
X74034510Y-96902257D02*
X73891653Y-96830828D01*
X73891653Y-96830828D02*
X73677368Y-96830828D01*
X73677368Y-96830828D02*
X73534510Y-96759400D01*
X73534510Y-96759400D02*
X73463082Y-96616542D01*
X73463082Y-96616542D02*
X73463082Y-96545114D01*
X73463082Y-96545114D02*
X73534510Y-96402257D01*
X73534510Y-96402257D02*
X73677368Y-96330828D01*
X73677368Y-96330828D02*
X73891653Y-96330828D01*
X73891653Y-96330828D02*
X74034510Y-96402257D01*
X74534511Y-96330828D02*
X75105939Y-96330828D01*
X74748796Y-95830828D02*
X74748796Y-97116542D01*
X74748796Y-97116542D02*
X74820225Y-97259400D01*
X74820225Y-97259400D02*
X74963082Y-97330828D01*
X74963082Y-97330828D02*
X75105939Y-97330828D01*
X76177368Y-97259400D02*
X76034511Y-97330828D01*
X76034511Y-97330828D02*
X75748797Y-97330828D01*
X75748797Y-97330828D02*
X75605939Y-97259400D01*
X75605939Y-97259400D02*
X75534511Y-97116542D01*
X75534511Y-97116542D02*
X75534511Y-96545114D01*
X75534511Y-96545114D02*
X75605939Y-96402257D01*
X75605939Y-96402257D02*
X75748797Y-96330828D01*
X75748797Y-96330828D02*
X76034511Y-96330828D01*
X76034511Y-96330828D02*
X76177368Y-96402257D01*
X76177368Y-96402257D02*
X76248797Y-96545114D01*
X76248797Y-96545114D02*
X76248797Y-96687971D01*
X76248797Y-96687971D02*
X75534511Y-96830828D01*
X76891653Y-97330828D02*
X76891653Y-96330828D01*
X76891653Y-96616542D02*
X76963082Y-96473685D01*
X76963082Y-96473685D02*
X77034511Y-96402257D01*
X77034511Y-96402257D02*
X77177368Y-96330828D01*
X77177368Y-96330828D02*
X77320225Y-96330828D01*
X77748796Y-97259400D02*
X77891653Y-97330828D01*
X77891653Y-97330828D02*
X78177367Y-97330828D01*
X78177367Y-97330828D02*
X78320224Y-97259400D01*
X78320224Y-97259400D02*
X78391653Y-97116542D01*
X78391653Y-97116542D02*
X78391653Y-97045114D01*
X78391653Y-97045114D02*
X78320224Y-96902257D01*
X78320224Y-96902257D02*
X78177367Y-96830828D01*
X78177367Y-96830828D02*
X77963082Y-96830828D01*
X77963082Y-96830828D02*
X77820224Y-96759400D01*
X77820224Y-96759400D02*
X77748796Y-96616542D01*
X77748796Y-96616542D02*
X77748796Y-96545114D01*
X77748796Y-96545114D02*
X77820224Y-96402257D01*
X77820224Y-96402257D02*
X77963082Y-96330828D01*
X77963082Y-96330828D02*
X78177367Y-96330828D01*
X78177367Y-96330828D02*
X78320224Y-96402257D01*
D11*
D12*
X55611653Y-100137971D02*
X55540225Y-100209400D01*
X55540225Y-100209400D02*
X55325939Y-100280828D01*
X55325939Y-100280828D02*
X55183082Y-100280828D01*
X55183082Y-100280828D02*
X54968796Y-100209400D01*
X54968796Y-100209400D02*
X54825939Y-100066542D01*
X54825939Y-100066542D02*
X54754510Y-99923685D01*
X54754510Y-99923685D02*
X54683082Y-99637971D01*
X54683082Y-99637971D02*
X54683082Y-99423685D01*
X54683082Y-99423685D02*
X54754510Y-99137971D01*
X54754510Y-99137971D02*
X54825939Y-98995114D01*
X54825939Y-98995114D02*
X54968796Y-98852257D01*
X54968796Y-98852257D02*
X55183082Y-98780828D01*
X55183082Y-98780828D02*
X55325939Y-98780828D01*
X55325939Y-98780828D02*
X55540225Y-98852257D01*
X55540225Y-98852257D02*
X55611653Y-98923685D01*
X56897368Y-100280828D02*
X56897368Y-99495114D01*
X56897368Y-99495114D02*
X56825939Y-99352257D01*
X56825939Y-99352257D02*
X56683082Y-99280828D01*
X56683082Y-99280828D02*
X56397368Y-99280828D01*
X56397368Y-99280828D02*
X56254510Y-99352257D01*
X56897368Y-100209400D02*
X56754510Y-100280828D01*
X56754510Y-100280828D02*
X56397368Y-100280828D01*
X56397368Y-100280828D02*
X56254510Y-100209400D01*
X56254510Y-100209400D02*
X56183082Y-100066542D01*
X56183082Y-100066542D02*
X56183082Y-99923685D01*
X56183082Y-99923685D02*
X56254510Y-99780828D01*
X56254510Y-99780828D02*
X56397368Y-99709400D01*
X56397368Y-99709400D02*
X56754510Y-99709400D01*
X56754510Y-99709400D02*
X56897368Y-99637971D01*
X57611653Y-100280828D02*
X57611653Y-99280828D01*
X57611653Y-99423685D02*
X57683082Y-99352257D01*
X57683082Y-99352257D02*
X57825939Y-99280828D01*
X57825939Y-99280828D02*
X58040225Y-99280828D01*
X58040225Y-99280828D02*
X58183082Y-99352257D01*
X58183082Y-99352257D02*
X58254511Y-99495114D01*
X58254511Y-99495114D02*
X58254511Y-100280828D01*
X58254511Y-99495114D02*
X58325939Y-99352257D01*
X58325939Y-99352257D02*
X58468796Y-99280828D01*
X58468796Y-99280828D02*
X58683082Y-99280828D01*
X58683082Y-99280828D02*
X58825939Y-99352257D01*
X58825939Y-99352257D02*
X58897368Y-99495114D01*
X58897368Y-99495114D02*
X58897368Y-100280828D01*
X59611653Y-99280828D02*
X59611653Y-100780828D01*
X59611653Y-99352257D02*
X59754511Y-99280828D01*
X59754511Y-99280828D02*
X60040225Y-99280828D01*
X60040225Y-99280828D02*
X60183082Y-99352257D01*
X60183082Y-99352257D02*
X60254511Y-99423685D01*
X60254511Y-99423685D02*
X60325939Y-99566542D01*
X60325939Y-99566542D02*
X60325939Y-99995114D01*
X60325939Y-99995114D02*
X60254511Y-100137971D01*
X60254511Y-100137971D02*
X60183082Y-100209400D01*
X60183082Y-100209400D02*
X60040225Y-100280828D01*
X60040225Y-100280828D02*
X59754511Y-100280828D01*
X59754511Y-100280828D02*
X59611653Y-100209400D01*
X61611654Y-99280828D02*
X61611654Y-100280828D01*
X60968796Y-99280828D02*
X60968796Y-100066542D01*
X60968796Y-100066542D02*
X61040225Y-100209400D01*
X61040225Y-100209400D02*
X61183082Y-100280828D01*
X61183082Y-100280828D02*
X61397368Y-100280828D01*
X61397368Y-100280828D02*
X61540225Y-100209400D01*
X61540225Y-100209400D02*
X61611654Y-100137971D01*
X62254511Y-100209400D02*
X62397368Y-100280828D01*
X62397368Y-100280828D02*
X62683082Y-100280828D01*
X62683082Y-100280828D02*
X62825939Y-100209400D01*
X62825939Y-100209400D02*
X62897368Y-100066542D01*
X62897368Y-100066542D02*
X62897368Y-99995114D01*
X62897368Y-99995114D02*
X62825939Y-99852257D01*
X62825939Y-99852257D02*
X62683082Y-99780828D01*
X62683082Y-99780828D02*
X62468797Y-99780828D01*
X62468797Y-99780828D02*
X62325939Y-99709400D01*
X62325939Y-99709400D02*
X62254511Y-99566542D01*
X62254511Y-99566542D02*
X62254511Y-99495114D01*
X62254511Y-99495114D02*
X62325939Y-99352257D01*
X62325939Y-99352257D02*
X62468797Y-99280828D01*
X62468797Y-99280828D02*
X62683082Y-99280828D01*
X62683082Y-99280828D02*
X62825939Y-99352257D01*
X63397368Y-99280828D02*
X63683083Y-100280828D01*
X63683083Y-100280828D02*
X63968797Y-99566542D01*
X63968797Y-99566542D02*
X64254511Y-100280828D01*
X64254511Y-100280828D02*
X64540225Y-99280828D01*
X65325940Y-100280828D02*
X65183083Y-100209400D01*
X65183083Y-100209400D02*
X65111654Y-100137971D01*
X65111654Y-100137971D02*
X65040226Y-99995114D01*
X65040226Y-99995114D02*
X65040226Y-99566542D01*
X65040226Y-99566542D02*
X65111654Y-99423685D01*
X65111654Y-99423685D02*
X65183083Y-99352257D01*
X65183083Y-99352257D02*
X65325940Y-99280828D01*
X65325940Y-99280828D02*
X65540226Y-99280828D01*
X65540226Y-99280828D02*
X65683083Y-99352257D01*
X65683083Y-99352257D02*
X65754512Y-99423685D01*
X65754512Y-99423685D02*
X65825940Y-99566542D01*
X65825940Y-99566542D02*
X65825940Y-99995114D01*
X65825940Y-99995114D02*
X65754512Y-100137971D01*
X65754512Y-100137971D02*
X65683083Y-100209400D01*
X65683083Y-100209400D02*
X65540226Y-100280828D01*
X65540226Y-100280828D02*
X65325940Y-100280828D01*
X67111655Y-100209400D02*
X66968797Y-100280828D01*
X66968797Y-100280828D02*
X66683083Y-100280828D01*
X66683083Y-100280828D02*
X66540226Y-100209400D01*
X66540226Y-100209400D02*
X66468797Y-100137971D01*
X66468797Y-100137971D02*
X66397369Y-99995114D01*
X66397369Y-99995114D02*
X66397369Y-99566542D01*
X66397369Y-99566542D02*
X66468797Y-99423685D01*
X66468797Y-99423685D02*
X66540226Y-99352257D01*
X66540226Y-99352257D02*
X66683083Y-99280828D01*
X66683083Y-99280828D02*
X66968797Y-99280828D01*
X66968797Y-99280828D02*
X67111655Y-99352257D01*
X67754511Y-100280828D02*
X67754511Y-98780828D01*
X68397369Y-100280828D02*
X68397369Y-99495114D01*
X68397369Y-99495114D02*
X68325940Y-99352257D01*
X68325940Y-99352257D02*
X68183083Y-99280828D01*
X68183083Y-99280828D02*
X67968797Y-99280828D01*
X67968797Y-99280828D02*
X67825940Y-99352257D01*
X67825940Y-99352257D02*
X67754511Y-99423685D01*
X69683083Y-100209400D02*
X69540226Y-100280828D01*
X69540226Y-100280828D02*
X69254512Y-100280828D01*
X69254512Y-100280828D02*
X69111654Y-100209400D01*
X69111654Y-100209400D02*
X69040226Y-100066542D01*
X69040226Y-100066542D02*
X69040226Y-99495114D01*
X69040226Y-99495114D02*
X69111654Y-99352257D01*
X69111654Y-99352257D02*
X69254512Y-99280828D01*
X69254512Y-99280828D02*
X69540226Y-99280828D01*
X69540226Y-99280828D02*
X69683083Y-99352257D01*
X69683083Y-99352257D02*
X69754512Y-99495114D01*
X69754512Y-99495114D02*
X69754512Y-99637971D01*
X69754512Y-99637971D02*
X69040226Y-99780828D01*
X71468797Y-98923685D02*
X71540225Y-98852257D01*
X71540225Y-98852257D02*
X71683083Y-98780828D01*
X71683083Y-98780828D02*
X72040225Y-98780828D01*
X72040225Y-98780828D02*
X72183083Y-98852257D01*
X72183083Y-98852257D02*
X72254511Y-98923685D01*
X72254511Y-98923685D02*
X72325940Y-99066542D01*
X72325940Y-99066542D02*
X72325940Y-99209400D01*
X72325940Y-99209400D02*
X72254511Y-99423685D01*
X72254511Y-99423685D02*
X71397368Y-100280828D01*
X71397368Y-100280828D02*
X72325940Y-100280828D01*
X73254511Y-98780828D02*
X73397368Y-98780828D01*
X73397368Y-98780828D02*
X73540225Y-98852257D01*
X73540225Y-98852257D02*
X73611654Y-98923685D01*
X73611654Y-98923685D02*
X73683082Y-99066542D01*
X73683082Y-99066542D02*
X73754511Y-99352257D01*
X73754511Y-99352257D02*
X73754511Y-99709400D01*
X73754511Y-99709400D02*
X73683082Y-99995114D01*
X73683082Y-99995114D02*
X73611654Y-100137971D01*
X73611654Y-100137971D02*
X73540225Y-100209400D01*
X73540225Y-100209400D02*
X73397368Y-100280828D01*
X73397368Y-100280828D02*
X73254511Y-100280828D01*
X73254511Y-100280828D02*
X73111654Y-100209400D01*
X73111654Y-100209400D02*
X73040225Y-100137971D01*
X73040225Y-100137971D02*
X72968796Y-99995114D01*
X72968796Y-99995114D02*
X72897368Y-99709400D01*
X72897368Y-99709400D02*
X72897368Y-99352257D01*
X72897368Y-99352257D02*
X72968796Y-99066542D01*
X72968796Y-99066542D02*
X73040225Y-98923685D01*
X73040225Y-98923685D02*
X73111654Y-98852257D01*
X73111654Y-98852257D02*
X73254511Y-98780828D01*
X74325939Y-98923685D02*
X74397367Y-98852257D01*
X74397367Y-98852257D02*
X74540225Y-98780828D01*
X74540225Y-98780828D02*
X74897367Y-98780828D01*
X74897367Y-98780828D02*
X75040225Y-98852257D01*
X75040225Y-98852257D02*
X75111653Y-98923685D01*
X75111653Y-98923685D02*
X75183082Y-99066542D01*
X75183082Y-99066542D02*
X75183082Y-99209400D01*
X75183082Y-99209400D02*
X75111653Y-99423685D01*
X75111653Y-99423685D02*
X74254510Y-100280828D01*
X74254510Y-100280828D02*
X75183082Y-100280828D01*
X75683081Y-98780828D02*
X76611653Y-98780828D01*
X76611653Y-98780828D02*
X76111653Y-99352257D01*
X76111653Y-99352257D02*
X76325938Y-99352257D01*
X76325938Y-99352257D02*
X76468796Y-99423685D01*
X76468796Y-99423685D02*
X76540224Y-99495114D01*
X76540224Y-99495114D02*
X76611653Y-99637971D01*
X76611653Y-99637971D02*
X76611653Y-99995114D01*
X76611653Y-99995114D02*
X76540224Y-100137971D01*
X76540224Y-100137971D02*
X76468796Y-100209400D01*
X76468796Y-100209400D02*
X76325938Y-100280828D01*
X76325938Y-100280828D02*
X75897367Y-100280828D01*
X75897367Y-100280828D02*
X75754510Y-100209400D01*
X75754510Y-100209400D02*
X75683081Y-100137971D01*
D13*
D14*
X57558270Y-91330571D02*
X57558270Y-94187714D01*
X55558270Y-88187714D02*
X57558270Y-91330571D01*
X57558270Y-91330571D02*
X59558270Y-88187714D01*
X61272556Y-92473428D02*
X64129699Y-92473428D01*
X60701127Y-94187714D02*
X62701127Y-88187714D01*
X62701127Y-88187714D02*
X64701127Y-94187714D01*
X68701127Y-91044857D02*
X69558270Y-91330571D01*
X69558270Y-91330571D02*
X69843984Y-91616285D01*
X69843984Y-91616285D02*
X70129698Y-92187714D01*
X70129698Y-92187714D02*
X70129698Y-93044857D01*
X70129698Y-93044857D02*
X69843984Y-93616285D01*
X69843984Y-93616285D02*
X69558270Y-93902000D01*
X69558270Y-93902000D02*
X68986841Y-94187714D01*
X68986841Y-94187714D02*
X66701127Y-94187714D01*
X66701127Y-94187714D02*
X66701127Y-88187714D01*
X66701127Y-88187714D02*
X68701127Y-88187714D01*
X68701127Y-88187714D02*
X69272556Y-88473428D01*
X69272556Y-88473428D02*
X69558270Y-88759142D01*
X69558270Y-88759142D02*
X69843984Y-89330571D01*
X69843984Y-89330571D02*
X69843984Y-89902000D01*
X69843984Y-89902000D02*
X69558270Y-90473428D01*
X69558270Y-90473428D02*
X69272556Y-90759142D01*
X69272556Y-90759142D02*
X68701127Y-91044857D01*
X68701127Y-91044857D02*
X66701127Y-91044857D01*
X76129698Y-94187714D02*
X74129698Y-91330571D01*
X72701127Y-94187714D02*
X72701127Y-88187714D01*
X72701127Y-88187714D02*
X74986841Y-88187714D01*
X74986841Y-88187714D02*
X75558270Y-88473428D01*
X75558270Y-88473428D02*
X75843984Y-88759142D01*
X75843984Y-88759142D02*
X76129698Y-89330571D01*
X76129698Y-89330571D02*
X76129698Y-90187714D01*
X76129698Y-90187714D02*
X75843984Y-90759142D01*
X75843984Y-90759142D02*
X75558270Y-91044857D01*
X75558270Y-91044857D02*
X74986841Y-91330571D01*
X74986841Y-91330571D02*
X72701127Y-91330571D01*
D11*
D12*
X102483082Y-20729400D02*
X102697368Y-20800828D01*
X102697368Y-20800828D02*
X103054510Y-20800828D01*
X103054510Y-20800828D02*
X103197368Y-20729400D01*
X103197368Y-20729400D02*
X103268796Y-20657971D01*
X103268796Y-20657971D02*
X103340225Y-20515114D01*
X103340225Y-20515114D02*
X103340225Y-20372257D01*
X103340225Y-20372257D02*
X103268796Y-20229400D01*
X103268796Y-20229400D02*
X103197368Y-20157971D01*
X103197368Y-20157971D02*
X103054510Y-20086542D01*
X103054510Y-20086542D02*
X102768796Y-20015114D01*
X102768796Y-20015114D02*
X102625939Y-19943685D01*
X102625939Y-19943685D02*
X102554510Y-19872257D01*
X102554510Y-19872257D02*
X102483082Y-19729400D01*
X102483082Y-19729400D02*
X102483082Y-19586542D01*
X102483082Y-19586542D02*
X102554510Y-19443685D01*
X102554510Y-19443685D02*
X102625939Y-19372257D01*
X102625939Y-19372257D02*
X102768796Y-19300828D01*
X102768796Y-19300828D02*
X103125939Y-19300828D01*
X103125939Y-19300828D02*
X103340225Y-19372257D01*
X103983081Y-20015114D02*
X104483081Y-20015114D01*
X104697367Y-20800828D02*
X103983081Y-20800828D01*
X103983081Y-20800828D02*
X103983081Y-19300828D01*
X103983081Y-19300828D02*
X104697367Y-19300828D01*
X106197367Y-20800828D02*
X105697367Y-20086542D01*
X105340224Y-20800828D02*
X105340224Y-19300828D01*
X105340224Y-19300828D02*
X105911653Y-19300828D01*
X105911653Y-19300828D02*
X106054510Y-19372257D01*
X106054510Y-19372257D02*
X106125939Y-19443685D01*
X106125939Y-19443685D02*
X106197367Y-19586542D01*
X106197367Y-19586542D02*
X106197367Y-19800828D01*
X106197367Y-19800828D02*
X106125939Y-19943685D01*
X106125939Y-19943685D02*
X106054510Y-20015114D01*
X106054510Y-20015114D02*
X105911653Y-20086542D01*
X105911653Y-20086542D02*
X105340224Y-20086542D01*
X106625939Y-19300828D02*
X107125939Y-20800828D01*
X107125939Y-20800828D02*
X107625939Y-19300828D01*
X108411653Y-19300828D02*
X108697367Y-19300828D01*
X108697367Y-19300828D02*
X108840224Y-19372257D01*
X108840224Y-19372257D02*
X108983081Y-19515114D01*
X108983081Y-19515114D02*
X109054510Y-19800828D01*
X109054510Y-19800828D02*
X109054510Y-20300828D01*
X109054510Y-20300828D02*
X108983081Y-20586542D01*
X108983081Y-20586542D02*
X108840224Y-20729400D01*
X108840224Y-20729400D02*
X108697367Y-20800828D01*
X108697367Y-20800828D02*
X108411653Y-20800828D01*
X108411653Y-20800828D02*
X108268796Y-20729400D01*
X108268796Y-20729400D02*
X108125938Y-20586542D01*
X108125938Y-20586542D02*
X108054510Y-20300828D01*
X108054510Y-20300828D02*
X108054510Y-19800828D01*
X108054510Y-19800828D02*
X108125938Y-19515114D01*
X108125938Y-19515114D02*
X108268796Y-19372257D01*
X108268796Y-19372257D02*
X108411653Y-19300828D01*
X110483082Y-20800828D02*
X109625939Y-20800828D01*
X110054510Y-20800828D02*
X110054510Y-19300828D01*
X110054510Y-19300828D02*
X109911653Y-19515114D01*
X109911653Y-19515114D02*
X109768796Y-19657971D01*
X109768796Y-19657971D02*
X109625939Y-19729400D01*
D11*
D12*
X24515114Y-90445489D02*
X24515114Y-90945489D01*
X25300828Y-90945489D02*
X23800828Y-90945489D01*
X23800828Y-90945489D02*
X23800828Y-90231203D01*
X24872257Y-89731203D02*
X24872257Y-89016918D01*
X25300828Y-89874060D02*
X23800828Y-89374060D01*
X23800828Y-89374060D02*
X25300828Y-88874060D01*
X23800828Y-88374061D02*
X25015114Y-88374061D01*
X25015114Y-88374061D02*
X25157971Y-88302632D01*
X25157971Y-88302632D02*
X25229400Y-88231204D01*
X25229400Y-88231204D02*
X25300828Y-88088346D01*
X25300828Y-88088346D02*
X25300828Y-87802632D01*
X25300828Y-87802632D02*
X25229400Y-87659775D01*
X25229400Y-87659775D02*
X25157971Y-87588346D01*
X25157971Y-87588346D02*
X25015114Y-87516918D01*
X25015114Y-87516918D02*
X23800828Y-87516918D01*
X25300828Y-86088346D02*
X25300828Y-86802632D01*
X25300828Y-86802632D02*
X23800828Y-86802632D01*
X23800828Y-85802631D02*
X23800828Y-84945489D01*
X25300828Y-85374060D02*
X23800828Y-85374060D01*
D15*
X125000000Y-22000000D03*
X125000000Y-97000000D03*
X25000000Y-97000000D03*
D16*
X45000000Y-56160000D03*
X45000000Y-46000000D03*
D17*
X112460000Y-72270000D03*
D18*
X112460000Y-69730000D03*
X115000000Y-72270000D03*
X115000000Y-69730000D03*
X117540000Y-72270000D03*
X117540000Y-69730000D03*
D19*
X84890000Y-71000000D03*
X82350000Y-71000000D03*
X79810000Y-71000000D03*
X77270000Y-71000000D03*
X74730000Y-71000000D03*
X72190000Y-71000000D03*
X69650000Y-71000000D03*
X67110000Y-71000000D03*
D20*
X31777500Y-48190000D03*
D21*
X31777500Y-55810000D03*
D22*
X119778000Y-97000000D03*
D23*
X116222000Y-97000000D03*
D19*
X114920000Y-27000000D03*
X117460000Y-27000000D03*
X120000000Y-27000000D03*
D24*
X30680000Y-22110000D03*
D25*
X30680000Y-39890000D03*
X71320000Y-39890000D03*
X71320000Y-22110000D03*
D26*
X31110000Y-89350000D03*
D27*
X33650000Y-89350000D03*
X36190000Y-89350000D03*
X38730000Y-89350000D03*
X41270000Y-89350000D03*
X43810000Y-89350000D03*
X46350000Y-89350000D03*
X48890000Y-89350000D03*
X48890000Y-76650000D03*
X46350000Y-76650000D03*
X43810000Y-76650000D03*
X41270000Y-76650000D03*
X38730000Y-76650000D03*
X36190000Y-76650000D03*
X33650000Y-76650000D03*
X31110000Y-76650000D03*
D28*
X38800000Y-97000000D03*
D29*
X36260000Y-97000000D03*
X33720000Y-97000000D03*
X31180000Y-97000000D03*
D30*
X37080000Y-71000000D03*
X26920000Y-71000000D03*
X109080000Y-71000000D03*
X98920000Y-71000000D03*
D26*
X102110000Y-89350000D03*
D27*
X104650000Y-89350000D03*
X107190000Y-89350000D03*
X109730000Y-89350000D03*
X112270000Y-89350000D03*
X114810000Y-89350000D03*
X117350000Y-89350000D03*
X119890000Y-89350000D03*
X119890000Y-76650000D03*
X117350000Y-76650000D03*
X114810000Y-76650000D03*
X112270000Y-76650000D03*
X109730000Y-76650000D03*
X107190000Y-76650000D03*
X104650000Y-76650000D03*
X102110000Y-76650000D03*
D17*
X40920000Y-72000000D03*
D18*
X40920000Y-69460000D03*
X43460000Y-72000000D03*
X43460000Y-69460000D03*
X46000000Y-72000000D03*
X46000000Y-69460000D03*
D22*
X48778000Y-97000000D03*
D23*
X45222000Y-97000000D03*
D31*
X98000000Y-76450000D03*
X98000000Y-79550000D03*
D32*
X27000000Y-89487500D03*
X27000000Y-86512500D03*
D33*
X40000000Y-46000000D03*
X40000000Y-56160000D03*
D19*
X103460000Y-27000000D03*
X106000000Y-27000000D03*
X108540000Y-27000000D03*
D32*
X98000000Y-89487500D03*
X98000000Y-86512500D03*
D31*
X27000000Y-76450000D03*
X27000000Y-79550000D03*
D28*
X109800000Y-97000000D03*
D29*
X107260000Y-97000000D03*
X104720000Y-97000000D03*
X102180000Y-97000000D03*
D34*
X81280000Y-60700000D03*
D35*
X83820000Y-60700000D03*
X86360000Y-60700000D03*
X88900000Y-60700000D03*
X91440000Y-60700000D03*
X93980000Y-60700000D03*
X96520000Y-60700000D03*
X99060000Y-60700000D03*
X101600000Y-60700000D03*
X104140000Y-60700000D03*
X106680000Y-60700000D03*
X109220000Y-60700000D03*
X111760000Y-60700000D03*
X114300000Y-60700000D03*
X116840000Y-60700000D03*
X119380000Y-60700000D03*
X121920000Y-60700000D03*
X124460000Y-60700000D03*
X127000000Y-60700000D03*
X126997280Y-35303680D03*
X124457280Y-35303680D03*
X121920000Y-35300000D03*
X119380000Y-35300000D03*
X116840000Y-35300000D03*
X114300000Y-35300000D03*
X111760000Y-35300000D03*
X109220000Y-35300000D03*
X106680000Y-35300000D03*
X104140000Y-35300000D03*
X101600000Y-35300000D03*
X99060000Y-35300000D03*
X96520000Y-35300000D03*
X93980000Y-35300000D03*
X91440000Y-35300000D03*
X88900000Y-35300000D03*
X86360000Y-35300000D03*
X83820000Y-35300000D03*
X81280000Y-35300000D03*
D36*
X80000000Y-65000000D03*
X100000000Y-93000000D03*
X29000000Y-93000000D03*
X79000000Y-68000000D03*
X86000000Y-68000000D03*
X76000000Y-68000000D03*
X89000000Y-66000000D03*
X108000000Y-67000000D03*
X110000000Y-65000000D03*
X116000000Y-48000000D03*
X119000000Y-45000000D03*
D37*
X116000000Y-48000000D02*
X114306000Y-48000000D01*
X114306000Y-48000000D02*
X102870000Y-59436000D01*
X102870000Y-59436000D02*
X102870000Y-62130000D01*
X102870000Y-62130000D02*
X85000000Y-80000000D01*
X33650000Y-77846000D02*
X33650000Y-76650000D01*
X85000000Y-80000000D02*
X35804000Y-80000000D01*
X35804000Y-80000000D02*
X33650000Y-77846000D01*
X119000000Y-45000000D02*
X119000000Y-47624000D01*
X105410000Y-58928000D02*
X105410000Y-61314924D01*
X119000000Y-47624000D02*
X116332000Y-50292000D01*
X116332000Y-50292000D02*
X114046000Y-50292000D01*
X84724924Y-82000000D02*
X35000000Y-82000000D01*
X114046000Y-50292000D02*
X105410000Y-58928000D01*
X105410000Y-61314924D02*
X84724924Y-82000000D01*
X35000000Y-82000000D02*
X31110000Y-78110000D01*
X31110000Y-78110000D02*
X31110000Y-76650000D01*
D38*
X119890000Y-96888000D02*
X119778000Y-97000000D01*
X48890000Y-96888000D02*
X48778000Y-97000000D01*
D37*
X27000000Y-76450000D02*
X26920000Y-76370000D01*
X26920000Y-76370000D02*
X26920000Y-71000000D01*
X98000000Y-76450000D02*
X98000000Y-71920000D01*
X32920000Y-65000000D02*
X26920000Y-71000000D01*
X80000000Y-65000000D02*
X32920000Y-65000000D01*
D39*
X103460000Y-27000000D02*
X103460000Y-26238000D01*
D37*
X98000000Y-71920000D02*
X98920000Y-71000000D01*
X98000000Y-91000000D02*
X98000000Y-89487500D01*
X100000000Y-93000000D02*
X98000000Y-91000000D01*
X98000000Y-79550000D02*
X98000000Y-86512500D01*
X29000000Y-93000000D02*
X27000000Y-91000000D01*
X27000000Y-91000000D02*
X27000000Y-89487500D01*
X27000000Y-79550000D02*
X27000000Y-86512500D01*
X79000000Y-68000000D02*
X86000000Y-68000000D01*
X77250000Y-66750000D02*
X88250000Y-66750000D01*
X88250000Y-66750000D02*
X89000000Y-66000000D01*
X76000000Y-68000000D02*
X77250000Y-66750000D01*
X95000000Y-63000000D02*
X96520000Y-61480000D01*
X58000000Y-46000000D02*
X75000000Y-63000000D01*
X96520000Y-61480000D02*
X96520000Y-60700000D01*
X45000000Y-46000000D02*
X58000000Y-46000000D01*
X75000000Y-63000000D02*
X95000000Y-63000000D01*
D38*
X117350000Y-72460000D02*
X117540000Y-72270000D01*
X114810000Y-72460000D02*
X115000000Y-72270000D01*
X112270000Y-72460000D02*
X112460000Y-72270000D01*
X46350000Y-72350000D02*
X46000000Y-72000000D01*
X43810000Y-72350000D02*
X43460000Y-72000000D01*
X41270000Y-72350000D02*
X40920000Y-72000000D01*
D37*
X104650000Y-70350000D02*
X104650000Y-76650000D01*
X108000000Y-67000000D02*
X104650000Y-70350000D01*
X105000000Y-65000000D02*
X102110000Y-67890000D01*
X102110000Y-67890000D02*
X102110000Y-76650000D01*
X110000000Y-65000000D02*
X105000000Y-65000000D01*
G04 #@! TA.AperFunction,NonConductor*
G36*
X87894335Y-93081062D02*
G01*
X92002324Y-95702981D01*
X92048244Y-95755642D01*
X92058403Y-95824769D01*
X92029578Y-95888415D01*
X92000084Y-95913427D01*
X91086610Y-96469454D01*
X91019110Y-96487496D01*
X90954600Y-96467527D01*
X89279999Y-95379999D01*
X88110000Y-96130000D01*
X88110000Y-96130001D01*
X89660872Y-97112820D01*
X89706962Y-97165332D01*
X89717344Y-97234426D01*
X89688724Y-97298165D01*
X89658687Y-97323651D01*
X88705709Y-97900243D01*
X88638162Y-97918106D01*
X88575133Y-97898883D01*
X87504115Y-97220000D01*
X84436535Y-95275561D01*
X84390451Y-95223044D01*
X84380075Y-95153949D01*
X84408703Y-95090213D01*
X84437280Y-95065628D01*
X85373345Y-94481587D01*
X85440642Y-94462801D01*
X85506071Y-94482505D01*
X86412509Y-95065627D01*
X87010000Y-95450000D01*
X88140000Y-94740000D01*
X87756332Y-94482505D01*
X86813043Y-93849425D01*
X86768347Y-93795721D01*
X86759781Y-93726379D01*
X86790065Y-93663413D01*
X86818876Y-93639818D01*
X87764359Y-93078939D01*
X87832058Y-93061666D01*
X87894335Y-93081062D01*
G37*
G04 #@! TD.AperFunction*
G04 #@! TA.AperFunction,NonConductor*
G36*
X85046966Y-89310870D02*
G01*
X85091232Y-89364929D01*
X85099599Y-89432163D01*
X84228894Y-95082281D01*
X84199229Y-95145540D01*
X84169837Y-95169904D01*
X83346768Y-95660580D01*
X83279105Y-95678001D01*
X83212765Y-95656075D01*
X83168810Y-95601763D01*
X83159936Y-95566885D01*
X82860000Y-92680000D01*
X82447029Y-96170585D01*
X82419604Y-96234847D01*
X82389119Y-96261472D01*
X81624274Y-96734572D01*
X81556905Y-96753098D01*
X81490215Y-96732260D01*
X81445377Y-96678675D01*
X81437099Y-96651606D01*
X80585420Y-92033611D01*
X80592620Y-91964116D01*
X80636250Y-91909543D01*
X80642426Y-91905487D01*
X81368169Y-91459458D01*
X81435589Y-91441127D01*
X81502219Y-91462157D01*
X81546902Y-91515871D01*
X81555933Y-91548172D01*
X81959999Y-94479999D01*
X81959999Y-94479995D01*
X81960000Y-94480000D01*
X82402645Y-90889656D01*
X82430383Y-90825532D01*
X82461390Y-90798820D01*
X83105259Y-90408157D01*
X83137453Y-90388623D01*
X83204978Y-90370677D01*
X83271487Y-90392087D01*
X83315862Y-90446056D01*
X83324722Y-90478512D01*
X83699999Y-93340000D01*
X83699999Y-93339996D01*
X83700000Y-93340000D01*
X84122750Y-89840017D01*
X84150331Y-89775823D01*
X84181746Y-89748747D01*
X84912943Y-89307133D01*
X84980502Y-89289325D01*
X85046966Y-89310870D01*
G37*
G04 #@! TD.AperFunction*
D40*
X80000000Y-65000000D03*
X100000000Y-93000000D03*
X29000000Y-93000000D03*
X79000000Y-68000000D03*
X86000000Y-68000000D03*
X76000000Y-68000000D03*
X89000000Y-66000000D03*
X108000000Y-67000000D03*
X110000000Y-65000000D03*
X116000000Y-48000000D03*
X119000000Y-45000000D03*
X45000000Y-56160000D03*
X45000000Y-46000000D03*
X112460000Y-72270000D03*
X112460000Y-69730000D03*
X115000000Y-72270000D03*
X115000000Y-69730000D03*
X117540000Y-72270000D03*
X117540000Y-69730000D03*
X84890000Y-71000000D03*
X82350000Y-71000000D03*
X79810000Y-71000000D03*
X77270000Y-71000000D03*
X74730000Y-71000000D03*
X72190000Y-71000000D03*
X69650000Y-71000000D03*
X67110000Y-71000000D03*
X31777500Y-48190000D03*
X31777500Y-55810000D03*
X119778000Y-97000000D03*
X116222000Y-97000000D03*
X114920000Y-27000000D03*
X117460000Y-27000000D03*
X120000000Y-27000000D03*
X30680000Y-22110000D03*
X30680000Y-39890000D03*
X71320000Y-39890000D03*
X71320000Y-22110000D03*
X31110000Y-89350000D03*
X33650000Y-89350000D03*
X36190000Y-89350000D03*
X38730000Y-89350000D03*
X41270000Y-89350000D03*
X43810000Y-89350000D03*
X46350000Y-89350000D03*
X48890000Y-89350000D03*
X48890000Y-76650000D03*
X46350000Y-76650000D03*
X43810000Y-76650000D03*
X41270000Y-76650000D03*
X38730000Y-76650000D03*
X36190000Y-76650000D03*
X33650000Y-76650000D03*
X31110000Y-76650000D03*
X38800000Y-97000000D03*
X36260000Y-97000000D03*
X33720000Y-97000000D03*
X31180000Y-97000000D03*
X37080000Y-71000000D03*
X26920000Y-71000000D03*
X109080000Y-71000000D03*
X98920000Y-71000000D03*
X102110000Y-89350000D03*
X104650000Y-89350000D03*
X107190000Y-89350000D03*
X109730000Y-89350000D03*
X112270000Y-89350000D03*
X114810000Y-89350000D03*
X117350000Y-89350000D03*
X119890000Y-89350000D03*
X119890000Y-76650000D03*
X117350000Y-76650000D03*
X114810000Y-76650000D03*
X112270000Y-76650000D03*
X109730000Y-76650000D03*
X107190000Y-76650000D03*
X104650000Y-76650000D03*
X102110000Y-76650000D03*
X40920000Y-72000000D03*
X40920000Y-69460000D03*
X43460000Y-72000000D03*
X43460000Y-69460000D03*
X46000000Y-72000000D03*
X46000000Y-69460000D03*
X48778000Y-97000000D03*
X45222000Y-97000000D03*
X40000000Y-46000000D03*
X40000000Y-56160000D03*
X103460000Y-27000000D03*
X106000000Y-27000000D03*
X108540000Y-27000000D03*
X109800000Y-97000000D03*
X107260000Y-97000000D03*
X104720000Y-97000000D03*
X102180000Y-97000000D03*
X81280000Y-60700000D03*
X83820000Y-60700000D03*
X86360000Y-60700000D03*
X88900000Y-60700000D03*
X91440000Y-60700000D03*
X93980000Y-60700000D03*
X96520000Y-60700000D03*
X99060000Y-60700000D03*
X101600000Y-60700000D03*
X104140000Y-60700000D03*
X106680000Y-60700000D03*
X109220000Y-60700000D03*
X111760000Y-60700000D03*
X114300000Y-60700000D03*
X116840000Y-60700000D03*
X119380000Y-60700000D03*
X121920000Y-60700000D03*
X124460000Y-60700000D03*
X127000000Y-60700000D03*
X126997280Y-35303680D03*
X124457280Y-35303680D03*
X121920000Y-35300000D03*
X119380000Y-35300000D03*
X116840000Y-35300000D03*
X114300000Y-35300000D03*
X111760000Y-35300000D03*
X109220000Y-35300000D03*
X106680000Y-35300000D03*
X104140000Y-35300000D03*
X101600000Y-35300000D03*
X99060000Y-35300000D03*
X96520000Y-35300000D03*
X93980000Y-35300000D03*
X91440000Y-35300000D03*
X88900000Y-35300000D03*
X86360000Y-35300000D03*
X83820000Y-35300000D03*
X81280000Y-35300000D03*
M02*
